<svg height="501pt" viewBox="0 -69 501.668 501" width="501pt" xmlns="http://www.w3.org/2000/svg"><path d="m497.675781 44.503906v304c0 5.539063-4.480469 10-10 10h-473.683593c-5.519532 0-10-4.460937-10-10v-304c0-5.519531 4.480468-10 10-10h473.683593c5.519531 0 10 4.480469 10 10zm0 0" fill="#1c868e"/><path d="m497.675781 44.503906v304c0 5.539063-4.480469 10-10 10h-447.421875c-5.519531 0-10-4.460937-10-10v-304c0-5.519531 4.480469-10 10-10h447.421875c5.519531 0 10 4.480469 10 10zm0 0" fill="#40c4df"/><path d="m46.3125 245.4375h-6c-5.519531 0-10-4.480469-10-10v-163c0-5.523438 4.480469-10 10-10h6c5.523438 0 10 4.476562 10 10v163c0 5.519531-4.476562 10-10 10zm0 0" fill="#d8d6d7"/><path d="m109.335938 245.4375h-6c-5.523438 0-10-4.480469-10-10v-163c0-5.523438 4.476562-10 10-10h6c5.519531 0 10 4.476562 10 10v163c0 5.519531-4.480469 10-10 10zm0 0" fill="#d8d6d7"/><path d="m172.355469 245.4375h-6c-5.523438 0-10-4.480469-10-10v-163c0-5.523438 4.476562-10 10-10h6c5.519531 0 10 4.476562 10 10v163c0 5.519531-4.480469 10-10 10zm0 0" fill="#d8d6d7"/><path d="m415.675781 111.546875h-150.128906c-5.523437 0-10 4.476563-10 10v150.128906c0 5.523438 4.476563 10 10 10h150.128906c5.523438 0 10-4.476562 10-10v-150.128906c0-5.523437-4.476562-10-10-10zm0 0" fill="#fff"/><path d="m403.835938 143.382812v106.460938c0 5.519531-4.480469 10-10 10h-106.441407c-5.539062 0-10-4.480469-10-10v-106.460938c0-5.519531 4.460938-10 10-10h106.441407c5.519531 0 10 4.480469 10 10zm0 0" fill="#d8d6d7"/><path d="m403.835938 143.382812v106.460938c0 5.519531-4.480469 10-10 10h-84.601563c-5.519531 0-10-4.480469-10-10v-106.460938c0-5.519531 4.480469-10 10-10h84.601563c5.519531 0 10 4.480469 10 10zm0 0" fill="#fff"/><path d="m350.0625 61.335938c0 5.21875-4.230469 9.449218-9.453125 9.449218-5.21875 0-9.453125-4.230468-9.453125-9.449218 0-5.222657 4.234375-9.453126 9.453125-9.453126 5.222656 0 9.453125 4.230469 9.453125 9.453126zm0 0" fill="#f85252"/><path d="m308.316406 331.691406c0 5.222656-4.230468 9.453125-9.453125 9.453125-5.21875 0-9.453125-4.230469-9.453125-9.453125 0-5.21875 4.234375-9.453125 9.453125-9.453125 5.222657 0 9.453125 4.234375 9.453125 9.453125zm0 0" fill="#f85252"/><path d="m233.6875 238.355469c0 5.222656-4.230469 9.453125-9.453125 9.453125-5.21875 0-9.449219-4.230469-9.449219-9.453125 0-5.21875 4.230469-9.453125 9.449219-9.453125 5.222656 0 9.453125 4.234375 9.453125 9.453125zm0 0" fill="#f85252"/><path d="m465.847656 154.867188c0 5.21875-4.234375 9.449218-9.453125 9.449218-5.222656 0-9.453125-4.230468-9.453125-9.449218 0-5.222657 4.230469-9.453126 9.453125-9.453126 5.21875 0 9.453125 4.230469 9.453125 9.453126zm0 0" fill="#f85252"/><path d="m83.335938 332.109375h-43.023438c-5.519531 0-10-4.476563-10-10v-40.511719c0-5.523437 4.480469-10 10-10h43.023438c5.519531 0 10 4.476563 10 10v40.511719c0 5.523437-4.480469 10-10 10zm0 0" fill="#f85252"/><path d="m172.355469 332.109375h-43.019531c-5.523438 0-10-4.476563-10-10v-40.511719c0-5.523437 4.476562-10 10-10h43.019531c5.519531 0 10 4.476563 10 10v40.511719c0 5.523437-4.480469 10-10 10zm0 0" fill="#f85252"/><path d="m465.855469 14.34375v20.160156h-55.019531v-20.160156c0-5.539062 4.476562-10 10-10h35.019531c5.519531 0 10 4.460938 10 10zm0 0" fill="#d8d6d7"/><path d="m391.695312 14.34375v20.160156h-55v-20.160156c0-5.539062 4.480469-10 10-10h35c5.539063 0 10 4.460938 10 10zm0 0" fill="#d8d6d7"/><path d="m465.855469 14.34375v20.160156h-37.019531v-20.160156c0-5.539062 4.476562-10 10-10h17.019531c5.519531 0 10 4.460938 10 10zm0 0" fill="#fff"/><path d="m391.695312 14.34375v20.160156h-37v-20.160156c0-5.539062 4.480469-10 10-10h17c5.539063 0 10 4.460938 10 10zm0 0" fill="#fff"/><g fill="#491352"><path d="m487.667969 30.511719h-17.820313v-16.175781c0-7.722657-6.285156-14-14-14h-35.011718c-7.71875 0-14 6.277343-14 14v16.175781h-11.132813v-16.175781c0-7.722657-6.28125-14-14-14h-35.011719c-7.71875 0-14 6.277343-14 14v16.175781h-318.691406c-7.71875 0-14 6.28125-14 14v304c0 7.71875 6.28125 14 14 14h473.667969c7.71875 0 14-6.28125 14-14v-304c0-7.71875-6.28125-14-14-14zm-72.832031-16.175781c0-3.308594 2.691406-6 6-6h35.011718c3.304688 0 6 2.691406 6 6v16.179687h-47.011718zm-74.144532 0c0-3.308594 2.691406-6 6-6h35.011719c3.308594 0 6 2.691406 6 6v16.179687h-47.011719zm152.976563 334.175781c0 3.308593-2.691407 6-6 6h-473.667969c-3.308594 0-6-2.691407-6-6v-304c0-3.308594 2.691406-6 6-6h473.667969c3.308593 0 6 2.691406 6 6zm0 0"/><path d="m40.3125 249.4375h6c7.71875 0 14-6.28125 14-14v-163c0-7.722656-6.28125-14-14-14h-6c-7.714844 0-14 6.277344-14 14v163c0 7.71875 6.285156 14 14 14zm-6-177c0-3.308594 2.695312-6 6-6h6c3.308594 0 6 2.691406 6 6v163c0 3.304688-2.691406 6-6 6h-6c-3.304688 0-6-2.695312-6-6zm0 0"/><path d="m123.335938 235.4375v-163c0-7.722656-6.285157-14-14-14h-6c-7.71875 0-14 6.277344-14 14v163c0 7.71875 6.28125 14 14 14h6c7.714843 0 14-6.28125 14-14zm-8 0c0 3.304688-2.695313 6-6 6h-6c-3.308594 0-6-2.695312-6-6v-163c0-3.308594 2.691406-6 6-6h6c3.304687 0 6 2.691406 6 6zm0 0"/><path d="m172.355469 58.4375h-6c-7.71875 0-14 6.277344-14 14v163c0 7.71875 6.28125 14 14 14h6c7.714843 0 14-6.28125 14-14v-163c0-7.722656-6.285157-14-14-14zm6 177c0 3.304688-2.695313 6-6 6h-6c-3.308594 0-6-2.695312-6-6v-163c0-3.308594 2.691406-6 6-6h6c3.304687 0 6 2.691406 6 6zm0 0"/><path d="m482.382812 192.609375h-52.707031v-33.746094h13.871094c4.558594 14.609375 26.300781 11.351563 26.300781-4 0-15.339843-21.738281-18.617187-26.296875-4h-13.875v-29.320312c0-7.71875-6.28125-14-14-14h-29.320312v-24.351563c0-5.285156-8-5.292968-8 0v24.351563h-33.746094v-33.363281c14.609375-4.558594 11.351563-26.300782-4-26.300782-15.34375 0-18.617187 21.738282-4 26.300782v33.363281h-33.742187v-36.757813c0-5.285156-8-5.292968-8 0v36.757813h-29.320313c-7.71875 0-14 6.28125-14 14v29.320312h-39.714844c-5.285156 0-5.292969 8 0 8h39.714844v33.746094h-52.710937c-5.285157 0-5.292969 8 0 8h52.707031v33.746094h-14.464844c-4.554687-14.609375-26.292969-11.347657-26.292969 4 0 15.347656 21.738282 18.617187 26.296875 4h14.464844v29.320312c0 7.71875 6.28125 14 14 14h29.320313v33.171875c-14.613282 4.558594-11.351563 26.296875 4 26.296875 15.339843 0 18.617187-21.734375 4-26.296875v-33.171875h33.742187v24.355469c0 5.285156 8 5.292969 8 0v-24.355469h33.746094v52.710938c0 5.285156 8 5.292969 8 0v-52.710938h29.320312c7.71875 0 14-6.28125 14-14v-29.320312h31.445313c5.28125 0 5.289062-8 0-8h-31.445313v-33.746094h52.707031c5.289063 0 5.292969-8 0-8zm-25.992187-43.195313c7.226563 0 7.199219 10.902344 0 10.902344s-7.203125-10.902344 0-10.902344zm-237.605469 88.941407c0-7.203125 10.902344-7.203125 10.902344 0s-10.902344 7.207031-10.902344 0zm116.371094-177.019531c0-7.207032 10.902344-7.207032 10.902344 0 0 7.203124-10.902344 7.203124-10.902344 0zm-30.839844 270.355468c0 7.207032-10.90625 7.207032-10.90625 0 0-7.207031 10.90625-7.203125 10.90625 0zm117.359375-60.015625c0 3.308594-2.691406 6-6 6h-150.128906c-3.308594 0-6-2.691406-6-6v-150.128906c0-3.308594 2.691406-6 6-6h150.128906c3.308594 0 6 2.691406 6 6zm0 0"/><path d="m393.835938 129.386719h-106.449219c-7.71875 0-14 6.277343-14 14v106.449219c0 7.71875 6.28125 14 14 14h106.449219c7.714843 0 14-6.28125 14-14v-106.449219c0-7.71875-6.285157-14-14-14zm6 120.449219c0 3.304687-2.695313 6-6 6h-106.449219c-3.308594 0-6-2.695313-6-6v-106.449219c0-3.308594 2.691406-6 6-6h106.449219c3.304687 0 6 2.691406 6 6zm0 0"/><path d="m83.335938 267.597656h-43.023438c-7.714844 0-14 6.28125-14 14v40.511719c0 7.71875 6.285156 14 14 14h43.023438c7.714843 0 14-6.28125 14-14v-40.511719c0-7.71875-6.285157-14-14-14zm6 54.511719c0 3.308594-2.695313 6-6 6h-43.023438c-3.304688 0-6-2.691406-6-6v-40.511719c0-3.308594 2.695312-6 6-6h43.023438c3.304687 0 6 2.691406 6 6zm0 0"/><path d="m172.355469 267.597656h-43.019531c-7.71875 0-14 6.28125-14 14v40.511719c0 7.71875 6.28125 14 14 14h43.019531c7.714843 0 14-6.28125 14-14v-40.511719c0-7.71875-6.285157-14-14-14zm6 54.511719c0 3.308594-2.695313 6-6 6h-43.019531c-3.308594 0-6-2.691406-6-6v-40.511719c0-3.308594 2.691406-6 6-6h43.019531c3.304687 0 6 2.691406 6 6zm0 0"/></g></svg>